<svg version="1.0" xmlns="http://www.w3.org/2000/svg" width="464" height="464" viewBox="0 0 348 348"><path d="M81.3 4.7 4 5v339h339V5h-45.2c-24.9 0-66.4-.2-92.3-.3-25.9-.2-81.8-.2-124.2 0zm75.9 32.5.3 30.3h64l.3-30.3L222 7h119v335H6V7h151l.2 30.2zm62.6-1-.3 29.3-30.2.3-30.3.2V7h61l-.2 29.2z"/><path d="M161 112.5V132l17.3-.2 17.2-.3v-38l-17.2-.3L161 93v19.5zm32.8-.3-.3 17.3-15.2.3-15.3.3V95h31l-.2 17.2z"/><path d="m178.4 111.5-1.7 2.6-2.3-2.2c-3.1-2.9-4.4-1.6-1.5 1.5 1.7 1.8 2 3 1.5 5.2-.7 2.6-.6 2.8.9 1.5 1.3-1 2-1.1 3-.2 1.9 1.5 2.8.3 1.4-2-1-1.6-.9-2.5.5-4.9 2.1-3.7.5-5-1.8-1.5zM40 160.5V215l43.8-.2 43.7-.3.3-54.3.2-54.2H40v54.5zm85.8-.3-.3 52.3-41.7.3-41.8.2V108h84l-.2 52.2z"/><path d="M71.7 125.6c-1.7 1.7 1.2 2.4 10.4 2.4h10l-.3 8.2-.3 8.3-10.4-.4c-8.4-.3-10.3-.1-9.9 1 .3 1 3.1 1.5 10.6 1.7l10.2.3v20.1l-10-.7c-6.6-.5-10-.4-10 .3 0 .9 6 1.7 18.5 2.5l3 .2v-44l-10.6-.3c-5.8-.1-10.8 0-11.2.4zM237 164v57l41.8-.2 41.7-.3.3-56.8.2-56.7h-84v57zm81.8-.3-.3 54.8-39.7.3-39.8.2V109h80l-.2 54.7z"/><path d="M288 130.9c0 .5 3.2 1.3 7 1.7 3.9.3 7 .9 6.9 1.3 0 .3-1.3 3.5-2.7 7.1l-2.7 6.5-4.8.3c-5.7.4-6.3 2.2-.7 2.2 2.2 0 4 .4 4 .8 0 .5-1.8 5.4-4 11.1-3.9 10-5 14.5-3.1 12.5.6-.5 3-6.1 5.5-12.4l4.5-11.5 4-.3c5.1-.4 5.4-2.2.5-2.2-3 0-3.5-.3-2.9-1.8 3.5-8.6 5.5-14.5 5-15.1-.7-1.2-16.5-1.4-16.5-.2zM255 132c0 .6 3 1 7 1h7v13h-13.1l.6 5.7c.3 3.2.8 7.9 1.1 10.6l.6 4.8 3.6-.7c8.6-1.6 11.3-4.1 3.3-3l-4.8.6-.7-3.7c-.3-2.1-.6-5.8-.6-8.2v-4.4l5.9.6 5.8.5.6-8.1c.3-4.5.3-8.5.1-8.9-.8-1.2-16.4-1-16.4.2zM161 179.5v20.6l15.8-.3 15.7-.3v-40l-15.7-.3-15.8-.3v20.6zm29.8-.3-.3 18.3-13.7.3-13.8.3V161h28l-.2 18.2z"/><path d="M171 177.4c0 4.6 2.4 7 6.6 6.3 2.9-.5 3.1-.3 2.6 1.6-.8 3.4-2.3 4.8-4.3 4.2-1.3-.5-1.9-.1-1.9 1 0 2.8 3 2.9 5.7.2 2-2 2.7-3.9 3.1-8.1.2-3.1.1-5.6-.2-5.6-.4 0-1.8 1.2-3.1 2.7-2 2.3-2.7 2.6-4.2 1.7-1-.6-1.8-1.7-1.9-2.5-.3-4.3-.5-4.9-1.4-4.9-.5 0-1 1.5-1 3.4zM161.2 250.7l.3 18.8h28l.3-18.8.2-18.7h-29l.2 18.7zm26.6 0-.3 16.8-12.2.3-12.3.3V234h25l-.2 16.7z"/><path d="M168 248c0 .5 2.5 1 5.6 1.2l5.7.3-5.1 3.5c-6.7 4.5-6.7 6-.2 6 5.3 0 7-1.6 2.3-2.2-2.7-.3-2.6-.4 2.5-4.1 2.8-2.2 5.2-4.3 5.2-4.8s-3.6-.9-8-.9-8 .4-8 1zM162 20c0 .5 2 1 4.4 1h4.3l.7 4.6c1.2 9 1.1 9.2-3.6 9.6l-4.3.3-.3 6.7-.3 6.8h5.6c3 0 5.5-.5 5.5-1 0-.6-2-1-4.5-1H165V37l3.8-.1c2-.1 4.3-.1 5 0 1 .2 1.2-.8.7-4.1-.4-2.4-.7-6.4-.8-9l-.2-4.8h-5.7c-3.2 0-5.8.4-5.8 1zM192.8 20.4c-1.4 1-1.8 2.8-1.8 7.5v6.2l5.5-.6 5.5-.7v3.8c0 5.9-.9 6.7-6.1 5.5-5.7-1.4-9.6-1.4-8.3-.1 1.7 1.7 14.1 3.9 15.3 2.7.6-.6 1.1-3.9 1.1-7.4V31h-11v-9.8l4.5.6c3 .3 4.5.1 4.5-.7 0-.6-1.1-1.1-2.4-1.1-1.3 0-3-.2-3.8-.5-.7-.2-2.1.2-3 .9z"/></svg>